# xmcd CD database file
#
# Track frame offsets:
#	150
#	17730
#	32905
#	57107
#	71807
#	87872
#	104835
#	122810
#	135665
#	150482
#	167582
#	184580
#
# Disc length: 2695 seconds
#
# Revision: 0
# Processed by: cddbd v1.5.1PL0 Copyright (c) Steve Scherf et al.
# Submitted via: CDex 1.51
#
DISCID=9f0a850c
DTITLE=ジェラート - 今夜はマイム・マイム
DYEAR=2000
DGENRE=Dance
TTITLE0=今夜はマイム・マイム
TTITLE1=ペンギンズ・ゲーム
TTITLE2=ラサ・サ・ヤン
TTITLE3=バイラ・バイラ
TTITLE4=バーバレラ
TTITLE5=TIC　TIC　TAC
TTITLE6=マカレナ
TTITLE7=SHO　JO　JI
TTITLE8=ラヴリー・ランバダ
TTITLE9=ミー＆ユー
TTITLE10=ペンギンズ・ゲーム（カラオケ）
TTITLE11=今夜はマイム・マイム（カラオケ）
EXTD=YEAR: 2000
EXTT0=
EXTT1=
EXTT2=
EXTT3=
EXTT4=
EXTT5=
EXTT6=
EXTT7=
EXTT8=
EXTT9=
EXTT10=
EXTT11=
PLAYORDER=
